<mxfile host="app.diagrams.net" agent="Mozilla/5.0 (Windows NT 10.0; Win64; x64) AppleWebKit/537.36 (KHTML, like Gecko) Chrome/126.0.0.0 Safari/537.36 OPR/112.0.0.0" version="24.7.13">
  <diagram name="PÃ¡gina-1" id="HZ1rUr-30hWGzFCj5z9i">
    <mxGraphModel dx="1132" dy="1229" grid="0" gridSize="10" guides="1" tooltips="1" connect="1" arrows="1" fold="1" page="0" pageScale="1" pageWidth="827" pageHeight="1169" math="0" shadow="0">
      <root>
        <mxCell id="0" />
        <mxCell id="1" parent="0" />
        <mxCell id="3Wj5wLLyhkfD9BhVifUG-6" value="INotifier" style="swimlane;whiteSpace=wrap;html=1;" vertex="1" parent="1">
          <mxGeometry x="568" width="200" height="200.0025806451614" as="geometry" />
        </mxCell>
        <mxCell id="3Wj5wLLyhkfD9BhVifUG-43" value="" style="shape=table;startSize=0;container=1;collapsible=0;childLayout=tableLayout;" vertex="1" parent="3Wj5wLLyhkfD9BhVifUG-6">
          <mxGeometry x="1" y="23.68" width="199" height="176.3225806451614" as="geometry" />
        </mxCell>
        <mxCell id="3Wj5wLLyhkfD9BhVifUG-44" value="" style="shape=tableRow;horizontal=0;startSize=0;swimlaneHead=0;swimlaneBody=0;strokeColor=inherit;top=0;left=0;bottom=0;right=0;collapsible=0;dropTarget=0;fillColor=none;points=[[0,0.5],[1,0.5]];portConstraint=eastwest;" vertex="1" parent="3Wj5wLLyhkfD9BhVifUG-43">
          <mxGeometry width="199" height="68" as="geometry" />
        </mxCell>
        <mxCell id="3Wj5wLLyhkfD9BhVifUG-45" value="" style="shape=partialRectangle;html=1;whiteSpace=wrap;connectable=0;strokeColor=inherit;overflow=hidden;fillColor=none;top=0;left=0;bottom=0;right=0;pointerEvents=1;" vertex="1" parent="3Wj5wLLyhkfD9BhVifUG-44">
          <mxGeometry width="199" height="68" as="geometry">
            <mxRectangle width="199" height="68" as="alternateBounds" />
          </mxGeometry>
        </mxCell>
        <mxCell id="3Wj5wLLyhkfD9BhVifUG-46" value="" style="shape=tableRow;horizontal=0;startSize=0;swimlaneHead=0;swimlaneBody=0;strokeColor=inherit;top=0;left=0;bottom=0;right=0;collapsible=0;dropTarget=0;fillColor=none;points=[[0,0.5],[1,0.5]];portConstraint=eastwest;" vertex="1" parent="3Wj5wLLyhkfD9BhVifUG-43">
          <mxGeometry y="68" width="199" height="108" as="geometry" />
        </mxCell>
        <mxCell id="3Wj5wLLyhkfD9BhVifUG-47" value="" style="shape=partialRectangle;html=1;whiteSpace=wrap;connectable=0;strokeColor=inherit;overflow=hidden;fillColor=none;top=0;left=0;bottom=0;right=0;pointerEvents=1;" vertex="1" parent="3Wj5wLLyhkfD9BhVifUG-46">
          <mxGeometry width="199" height="108" as="geometry">
            <mxRectangle width="199" height="108" as="alternateBounds" />
          </mxGeometry>
        </mxCell>
        <mxCell id="3Wj5wLLyhkfD9BhVifUG-19" style="edgeStyle=orthogonalEdgeStyle;rounded=0;orthogonalLoop=1;jettySize=auto;html=1;entryX=0.5;entryY=1;entryDx=0;entryDy=0;" edge="1" parent="1" source="3Wj5wLLyhkfD9BhVifUG-11" target="3Wj5wLLyhkfD9BhVifUG-5">
          <mxGeometry relative="1" as="geometry" />
        </mxCell>
        <mxCell id="3Wj5wLLyhkfD9BhVifUG-11" value="CredCardProcessor" style="swimlane;whiteSpace=wrap;html=1;startSize=23;" vertex="1" parent="1">
          <mxGeometry x="-134" y="282" width="146" height="151" as="geometry" />
        </mxCell>
        <mxCell id="3Wj5wLLyhkfD9BhVifUG-18" style="edgeStyle=orthogonalEdgeStyle;rounded=0;orthogonalLoop=1;jettySize=auto;html=1;exitX=0.5;exitY=0;exitDx=0;exitDy=0;entryX=0.5;entryY=1;entryDx=0;entryDy=0;" edge="1" parent="1" source="3Wj5wLLyhkfD9BhVifUG-12" target="3Wj5wLLyhkfD9BhVifUG-5">
          <mxGeometry relative="1" as="geometry">
            <mxPoint x="121" y="213" as="targetPoint" />
          </mxGeometry>
        </mxCell>
        <mxCell id="3Wj5wLLyhkfD9BhVifUG-12" value="PayPalProcessor" style="swimlane;whiteSpace=wrap;html=1;" vertex="1" parent="1">
          <mxGeometry x="17" y="282" width="146" height="151" as="geometry" />
        </mxCell>
        <mxCell id="3Wj5wLLyhkfD9BhVifUG-17" style="edgeStyle=orthogonalEdgeStyle;rounded=0;orthogonalLoop=1;jettySize=auto;html=1;exitX=0.5;exitY=0;exitDx=0;exitDy=0;entryX=0.5;entryY=1;entryDx=0;entryDy=0;" edge="1" parent="1" source="3Wj5wLLyhkfD9BhVifUG-13" target="3Wj5wLLyhkfD9BhVifUG-5">
          <mxGeometry relative="1" as="geometry" />
        </mxCell>
        <mxCell id="3Wj5wLLyhkfD9BhVifUG-13" value="BitcoinProcessor" style="swimlane;whiteSpace=wrap;html=1;startSize=23;" vertex="1" parent="1">
          <mxGeometry x="168" y="282" width="146" height="151" as="geometry" />
        </mxCell>
        <mxCell id="3Wj5wLLyhkfD9BhVifUG-21" style="edgeStyle=orthogonalEdgeStyle;rounded=0;orthogonalLoop=1;jettySize=auto;html=1;exitX=0.5;exitY=0;exitDx=0;exitDy=0;entryX=0.5;entryY=1;entryDx=0;entryDy=0;" edge="1" parent="1" source="3Wj5wLLyhkfD9BhVifUG-14" target="3Wj5wLLyhkfD9BhVifUG-6">
          <mxGeometry relative="1" as="geometry">
            <mxPoint x="666.5882352941176" y="195.35294117647072" as="targetPoint" />
          </mxGeometry>
        </mxCell>
        <mxCell id="3Wj5wLLyhkfD9BhVifUG-14" value="EmialNotifier" style="swimlane;whiteSpace=wrap;html=1;startSize=23;" vertex="1" parent="1">
          <mxGeometry x="444" y="282" width="146" height="151" as="geometry" />
        </mxCell>
        <mxCell id="3Wj5wLLyhkfD9BhVifUG-20" style="edgeStyle=orthogonalEdgeStyle;rounded=0;orthogonalLoop=1;jettySize=auto;html=1;entryX=0.5;entryY=1;entryDx=0;entryDy=0;" edge="1" parent="1" source="3Wj5wLLyhkfD9BhVifUG-15" target="3Wj5wLLyhkfD9BhVifUG-6">
          <mxGeometry relative="1" as="geometry" />
        </mxCell>
        <mxCell id="3Wj5wLLyhkfD9BhVifUG-15" value="SMSNotifier" style="swimlane;whiteSpace=wrap;html=1;" vertex="1" parent="1">
          <mxGeometry x="595" y="282" width="146" height="151" as="geometry" />
        </mxCell>
        <mxCell id="3Wj5wLLyhkfD9BhVifUG-22" style="edgeStyle=orthogonalEdgeStyle;rounded=0;orthogonalLoop=1;jettySize=auto;html=1;entryX=0.5;entryY=1;entryDx=0;entryDy=0;" edge="1" parent="1" source="3Wj5wLLyhkfD9BhVifUG-16" target="3Wj5wLLyhkfD9BhVifUG-6">
          <mxGeometry relative="1" as="geometry" />
        </mxCell>
        <mxCell id="3Wj5wLLyhkfD9BhVifUG-16" value="PushNotifier" style="swimlane;whiteSpace=wrap;html=1;" vertex="1" parent="1">
          <mxGeometry x="746" y="282" width="146" height="151" as="geometry" />
        </mxCell>
        <mxCell id="3Wj5wLLyhkfD9BhVifUG-23" value="RestaurantoderSytem" style="swimlane;whiteSpace=wrap;html=1;startSize=23;" vertex="1" parent="1">
          <mxGeometry x="279" y="-308" width="200" height="200.0025806451614" as="geometry" />
        </mxCell>
        <mxCell id="3Wj5wLLyhkfD9BhVifUG-48" value="" style="shape=table;startSize=0;container=1;collapsible=0;childLayout=tableLayout;" vertex="1" parent="3Wj5wLLyhkfD9BhVifUG-23">
          <mxGeometry x="1" y="23.680000000000007" width="199" height="176.3225806451614" as="geometry" />
        </mxCell>
        <mxCell id="3Wj5wLLyhkfD9BhVifUG-49" value="" style="shape=tableRow;horizontal=0;startSize=0;swimlaneHead=0;swimlaneBody=0;strokeColor=inherit;top=0;left=0;bottom=0;right=0;collapsible=0;dropTarget=0;fillColor=none;points=[[0,0.5],[1,0.5]];portConstraint=eastwest;" vertex="1" parent="3Wj5wLLyhkfD9BhVifUG-48">
          <mxGeometry width="199" height="68" as="geometry" />
        </mxCell>
        <mxCell id="3Wj5wLLyhkfD9BhVifUG-50" value="" style="shape=partialRectangle;html=1;whiteSpace=wrap;connectable=0;strokeColor=inherit;overflow=hidden;fillColor=none;top=0;left=0;bottom=0;right=0;pointerEvents=1;" vertex="1" parent="3Wj5wLLyhkfD9BhVifUG-49">
          <mxGeometry width="199" height="68" as="geometry">
            <mxRectangle width="199" height="68" as="alternateBounds" />
          </mxGeometry>
        </mxCell>
        <mxCell id="3Wj5wLLyhkfD9BhVifUG-51" value="" style="shape=tableRow;horizontal=0;startSize=0;swimlaneHead=0;swimlaneBody=0;strokeColor=inherit;top=0;left=0;bottom=0;right=0;collapsible=0;dropTarget=0;fillColor=none;points=[[0,0.5],[1,0.5]];portConstraint=eastwest;" vertex="1" parent="3Wj5wLLyhkfD9BhVifUG-48">
          <mxGeometry y="68" width="199" height="108" as="geometry" />
        </mxCell>
        <mxCell id="3Wj5wLLyhkfD9BhVifUG-52" value="" style="shape=partialRectangle;html=1;whiteSpace=wrap;connectable=0;strokeColor=inherit;overflow=hidden;fillColor=none;top=0;left=0;bottom=0;right=0;pointerEvents=1;" vertex="1" parent="3Wj5wLLyhkfD9BhVifUG-51">
          <mxGeometry width="199" height="108" as="geometry">
            <mxRectangle width="199" height="108" as="alternateBounds" />
          </mxGeometry>
        </mxCell>
        <mxCell id="3Wj5wLLyhkfD9BhVifUG-24" value="Order" style="swimlane;whiteSpace=wrap;html=1;" vertex="1" parent="1">
          <mxGeometry x="279" y="-69" width="200" height="200.0025806451614" as="geometry" />
        </mxCell>
        <mxCell id="3Wj5wLLyhkfD9BhVifUG-38" value="" style="shape=table;startSize=0;container=1;collapsible=0;childLayout=tableLayout;" vertex="1" parent="3Wj5wLLyhkfD9BhVifUG-24">
          <mxGeometry x="1" y="23.680000000000007" width="199" height="176.3225806451614" as="geometry" />
        </mxCell>
        <mxCell id="3Wj5wLLyhkfD9BhVifUG-39" value="" style="shape=tableRow;horizontal=0;startSize=0;swimlaneHead=0;swimlaneBody=0;strokeColor=inherit;top=0;left=0;bottom=0;right=0;collapsible=0;dropTarget=0;fillColor=none;points=[[0,0.5],[1,0.5]];portConstraint=eastwest;" vertex="1" parent="3Wj5wLLyhkfD9BhVifUG-38">
          <mxGeometry width="199" height="68" as="geometry" />
        </mxCell>
        <mxCell id="3Wj5wLLyhkfD9BhVifUG-40" value="" style="shape=partialRectangle;html=1;whiteSpace=wrap;connectable=0;strokeColor=inherit;overflow=hidden;fillColor=none;top=0;left=0;bottom=0;right=0;pointerEvents=1;" vertex="1" parent="3Wj5wLLyhkfD9BhVifUG-39">
          <mxGeometry width="199" height="68" as="geometry">
            <mxRectangle width="199" height="68" as="alternateBounds" />
          </mxGeometry>
        </mxCell>
        <mxCell id="3Wj5wLLyhkfD9BhVifUG-41" value="" style="shape=tableRow;horizontal=0;startSize=0;swimlaneHead=0;swimlaneBody=0;strokeColor=inherit;top=0;left=0;bottom=0;right=0;collapsible=0;dropTarget=0;fillColor=none;points=[[0,0.5],[1,0.5]];portConstraint=eastwest;" vertex="1" parent="3Wj5wLLyhkfD9BhVifUG-38">
          <mxGeometry y="68" width="199" height="108" as="geometry" />
        </mxCell>
        <mxCell id="3Wj5wLLyhkfD9BhVifUG-42" value="" style="shape=partialRectangle;html=1;whiteSpace=wrap;connectable=0;strokeColor=inherit;overflow=hidden;fillColor=none;top=0;left=0;bottom=0;right=0;pointerEvents=1;" vertex="1" parent="3Wj5wLLyhkfD9BhVifUG-41">
          <mxGeometry width="199" height="108" as="geometry">
            <mxRectangle width="199" height="108" as="alternateBounds" />
          </mxGeometry>
        </mxCell>
        <mxCell id="3Wj5wLLyhkfD9BhVifUG-5" value="IPayment_Processor" style="swimlane;whiteSpace=wrap;html=1;startSize=23;shadow=1;" vertex="1" parent="1">
          <mxGeometry x="-10" width="200" height="200" as="geometry">
            <mxRectangle x="-222" y="86" width="146" height="26" as="alternateBounds" />
          </mxGeometry>
        </mxCell>
        <mxCell id="3Wj5wLLyhkfD9BhVifUG-33" value="" style="shape=table;startSize=0;container=1;collapsible=0;childLayout=tableLayout;" vertex="1" parent="3Wj5wLLyhkfD9BhVifUG-5">
          <mxGeometry y="23.68" width="200.19230769230757" height="176.3225806451614" as="geometry" />
        </mxCell>
        <mxCell id="3Wj5wLLyhkfD9BhVifUG-34" value="" style="shape=tableRow;horizontal=0;startSize=0;swimlaneHead=0;swimlaneBody=0;strokeColor=inherit;top=0;left=0;bottom=0;right=0;collapsible=0;dropTarget=0;fillColor=none;points=[[0,0.5],[1,0.5]];portConstraint=eastwest;" vertex="1" parent="3Wj5wLLyhkfD9BhVifUG-33">
          <mxGeometry width="200.19230769230757" height="68" as="geometry" />
        </mxCell>
        <mxCell id="3Wj5wLLyhkfD9BhVifUG-35" value="&lt;div style=&quot;text-align: justify;&quot;&gt;&lt;span style=&quot;background-color: initial;&quot;&gt;&amp;nbsp;+&amp;nbsp;&lt;/span&gt;&lt;span style=&quot;background-color: initial;&quot;&gt;Double amount&lt;/span&gt;&lt;/div&gt;" style="shape=partialRectangle;html=1;whiteSpace=wrap;connectable=0;strokeColor=inherit;overflow=hidden;fillColor=none;top=0;left=0;bottom=0;right=0;pointerEvents=1;" vertex="1" parent="3Wj5wLLyhkfD9BhVifUG-34">
          <mxGeometry width="200" height="68" as="geometry">
            <mxRectangle width="200" height="68" as="alternateBounds" />
          </mxGeometry>
        </mxCell>
        <mxCell id="3Wj5wLLyhkfD9BhVifUG-36" value="" style="shape=tableRow;horizontal=0;startSize=0;swimlaneHead=0;swimlaneBody=0;strokeColor=inherit;top=0;left=0;bottom=0;right=0;collapsible=0;dropTarget=0;fillColor=none;points=[[0,0.5],[1,0.5]];portConstraint=eastwest;" vertex="1" parent="3Wj5wLLyhkfD9BhVifUG-33">
          <mxGeometry y="68" width="200.19230769230757" height="108" as="geometry" />
        </mxCell>
        <mxCell id="3Wj5wLLyhkfD9BhVifUG-37" value="&lt;div style=&quot;text-align: justify;&quot;&gt;&lt;span style=&quot;background-color: initial;&quot;&gt;()CredCardProcessor&lt;/span&gt;&lt;br&gt;&lt;/div&gt;&lt;div style=&quot;text-align: justify;&quot;&gt;&lt;span style=&quot;background-color: initial;&quot;&gt;()PaypalProcessor&lt;/span&gt;&lt;/div&gt;&lt;div style=&quot;text-align: justify;&quot;&gt;&lt;span style=&quot;background-color: initial;&quot;&gt;()BitcoinProcessor&lt;/span&gt;&lt;/div&gt;" style="shape=partialRectangle;html=1;whiteSpace=wrap;connectable=0;strokeColor=inherit;overflow=hidden;fillColor=none;top=0;left=0;bottom=0;right=0;pointerEvents=1;" vertex="1" parent="3Wj5wLLyhkfD9BhVifUG-36">
          <mxGeometry width="200" height="108" as="geometry">
            <mxRectangle width="200" height="108" as="alternateBounds" />
          </mxGeometry>
        </mxCell>
      </root>
    </mxGraphModel>
  </diagram>
</mxfile>
